<svg width="1437" height="172" viewBox="0 0 1437 172" fill="none" xmlns="http://www.w3.org/2000/svg">
<path d="M-8 170.786L40.1667 164.15C88.3333 157.569 184.667 144.298 281 141.687C377.333 139.076 473.667 147.017 570 157.46C666.333 167.903 762.667 180.739 859 163.715C955.333 146.691 1051.67 99.6976 1148 79.41C1244.33 59.1224 1340.67 65.4317 1388.83 68.6407L1437 71.7954V0H1388.83C1340.67 0 1244.33 0 1148 0C1051.67 0 955.333 0 859 0C762.667 0 666.333 0 570 0C473.667 0 377.333 0 281 0C184.667 0 88.3333 0 40.1667 0H-8V170.786Z" fill="white"/>
</svg>
