<svg width="1440" height="200" viewBox="0 0 1440 200" fill="none" xmlns="http://www.w3.org/2000/svg">
<path d="M-12 165.068L36.4 170.147C84.8 175.171 181.6 185.329 278.4 192.837C375.2 200.4 472 205.369 568.8 189.745C665.6 174.066 762.4 137.851 859.2 133.214C956 128.631 1052.8 155.683 1149.6 158.553C1246.4 161.369 1343.2 140.059 1391.6 129.349L1440 118.694V0H1391.6C1343.2 0 1246.4 0 1149.6 0C1052.8 0 956 0 859.2 0C762.4 0 665.6 0 568.8 0C472 0 375.2 0 278.4 0C181.6 0 84.8 0 36.4 0H-12V165.068Z" fill="#78ABA8"/>
</svg>
