<svg width="1440" height="240" viewBox="0 0 1440 240" fill="none" xmlns="http://www.w3.org/2000/svg">
<path d="M0 84.1348L34.4 93.1281C68.8 102.121 137.6 120.108 206.08 129.102C274.72 138.095 342.88 138.095 411.52 159.679C480 181.263 548.8 224.431 617.28 231.626C685.92 238.82 754.08 210.042 822.72 201.048C891.2 192.055 960 202.847 1028.48 215.438C1097.12 228.028 1165.28 242.418 1233.92 238.82C1302.4 235.223 1371.2 213.639 1405.6 202.847L1440 192.055V-4H1405.6C1371.2 -4 1302.4 -4 1233.92 -4C1165.28 -4 1097.12 -4 1028.48 -4C960 -4 891.2 -4 822.72 -4C754.08 -4 685.92 -4 617.28 -4C548.8 -4 480 -4 411.52 -4C342.88 -4 274.72 -4 206.08 -4C137.6 -4 68.8 -4 34.4 -4H0V84.1348Z" fill="#EF9C66"/>
</svg>
