<svg width="1440" height="248" viewBox="0 0 1440 248" fill="none" xmlns="http://www.w3.org/2000/svg">
<path d="M0 247.467L34.4 245.76C68.8 244.053 137.6 240.64 206.08 233.813C274.72 226.987 342.88 216.747 411.52 199.68C480 182.613 548.8 158.72 617.28 153.6C685.92 148.48 754.08 162.133 822.72 162.133C891.2 162.133 960 148.48 1028.48 126.293C1097.12 104.107 1165.28 73.3867 1233.92 73.3867C1302.4 73.3867 1371.2 104.107 1405.6 119.467L1440 134.827V0H1405.6C1371.2 0 1302.4 0 1233.92 0C1165.28 0 1097.12 0 1028.48 0C960 0 891.2 0 822.72 0C754.08 0 685.92 0 617.28 0C548.8 0 480 0 411.52 0C342.88 0 274.72 0 206.08 0C137.6 0 68.8 0 34.4 0H0V247.467Z" fill="#FCDC94"/>
</svg>
